<svg width="58" height="56" viewBox="0 0 58 56" fill="none" xmlns="http://www.w3.org/2000/svg">
<ellipse cx="29" cy="28" rx="29" ry="28" fill="#3193B3"/>
<path fill-rule="evenodd" clip-rule="evenodd" d="M36.8879 15.9654C35.837 15.6289 34.7125 16.2097 34.2915 17.3714H34.2884C33.5988 19.265 34.5989 20.8356 35.644 22.477C36.5593 23.9145 37.5092 25.4064 37.3887 27.2171C37.3887 27.2312 37.4041 27.2419 37.4133 27.2277C40.2954 23.0238 40.1172 17.0066 36.8879 15.9654ZM8 36V17H11V36H8ZM13.2121 35.9649V28.9744H14.7659L14.7526 31.3046H14.9616C15.0568 30.7369 15.2049 30.2663 15.4059 29.8927C15.6055 29.5206 15.8674 29.2428 16.1887 29.0607C16.51 28.8787 16.8975 28.7884 17.351 28.7884C18.1339 28.7884 18.7263 29.0661 19.1269 29.6204C19.5276 30.1746 19.7273 31.0389 19.7273 32.2094V35.9635H17.8469V32.4225C17.8469 31.7213 17.7464 31.2102 17.5467 30.892C17.3471 30.5724 17.0456 30.4133 16.6462 30.4133C16.3156 30.4133 16.034 30.5225 15.8039 30.7396C15.5738 30.9567 15.3966 31.2587 15.275 31.6444C15.1533 32.0301 15.0925 32.4858 15.0925 33.009V35.9649H13.2121ZM22.6285 35.8269C22.9444 35.9176 23.2956 35.9636 23.6811 35.9636L23.68 35.9649C24.2256 35.9649 24.6873 35.8794 25.065 35.7059C25.4428 35.5324 25.7344 35.2867 25.9376 34.9659C26.1408 34.6452 26.2424 34.2654 26.2424 33.8237C26.2424 33.4347 26.175 33.1179 26.0403 32.8761C25.9056 32.6342 25.7255 32.4371 25.5002 32.2859C25.2749 32.1348 25.0264 32.0138 24.7536 31.9232C24.4819 31.8325 24.2035 31.7523 23.9197 31.6826C23.6424 31.613 23.405 31.5459 23.2051 31.4815C23.004 31.4158 22.8505 31.3317 22.7412 31.2278C22.6318 31.124 22.5777 30.9939 22.5777 30.8388C22.5777 30.6311 22.6616 30.4668 22.8284 30.3459C22.9963 30.225 23.2327 30.1645 23.5375 30.1645C23.7783 30.1645 23.9881 30.2066 24.1704 30.2881C24.3515 30.3696 24.4962 30.4931 24.6011 30.6574C24.7061 30.8217 24.7668 31.0202 24.7812 31.2541L26.079 30.8388C26.0359 30.3893 25.9011 30.012 25.6758 29.7097C25.4505 29.4074 25.1556 29.1774 24.7922 29.0223C24.4277 28.8659 24.0135 28.7884 23.5486 28.7884C23.0394 28.7884 22.6031 28.8764 22.2397 29.0539C21.8763 29.2313 21.598 29.4784 21.4058 29.7939C21.2125 30.1093 21.1165 30.48 21.1165 30.9032C21.1165 31.2844 21.186 31.5972 21.3241 31.8443C21.4622 32.0901 21.6466 32.2925 21.8752 32.4476C22.1039 32.6027 22.3601 32.7289 22.644 32.8235C22.9278 32.9181 23.215 33.0049 23.5055 33.0824C23.7893 33.1521 24.0257 33.2204 24.2146 33.2901C24.4034 33.3598 24.5448 33.4399 24.6398 33.5306C24.7337 33.6213 24.7812 33.7488 24.7812 33.9131C24.7812 34.1379 24.6906 34.3074 24.5084 34.4192C24.3272 34.5309 24.0721 34.5874 23.7672 34.5874C23.4624 34.5874 23.204 34.5401 22.993 34.4441C22.782 34.3495 22.6153 34.2128 22.4916 34.0354C22.3678 33.8579 22.2961 33.6621 22.274 33.4452L21.0303 33.9C21.0513 34.2365 21.1297 34.5335 21.2645 34.7885C21.3992 35.0435 21.5814 35.2577 21.8101 35.4312C22.0398 35.6047 22.3126 35.7362 22.6285 35.8269ZM29.4623 35.9649C28.8198 35.9649 28.3392 35.6871 28.0217 35.1329C27.7042 34.5787 27.5455 33.7372 27.5455 32.6099V28.7884H29.0708V32.4238C29.0708 33.09 29.148 33.5781 29.3036 33.8882C29.4591 34.1984 29.6951 34.3548 30.0137 34.3548C30.2046 34.3548 30.3719 34.2955 30.5168 34.1755C30.6616 34.0554 30.7871 33.8828 30.8933 33.6563C30.9995 33.4298 31.0799 33.1574 31.1368 32.8378C31.1936 32.5182 31.2247 32.1636 31.2322 31.7725V28.7897H32.7576V35.7801H31.4972L31.5079 33.4365H31.3384C31.2537 34.0217 31.1314 34.5018 30.9726 34.874C30.8139 35.2461 30.6112 35.5226 30.3634 35.6992C30.1167 35.8772 29.8163 35.9649 29.4634 35.9649H29.4623ZM34.0606 27.353V35.9649H35.3636V27.353H34.0606ZM36.6667 35.9649V28.7884H37.9697V35.9649H36.6667ZM39.2727 30.3725V35.9649H40.777V33.6002C40.777 33.1816 40.8257 32.817 40.923 32.5085C41.0203 32.2 41.161 31.9583 41.3462 31.7846C41.5302 31.611 41.7555 31.5236 42.02 31.5236C42.3395 31.5236 42.5807 31.6509 42.7404 31.9065C42.9002 32.1611 42.9806 32.57 42.9806 33.1309V35.9638H44.4848V32.9605C44.4848 32.0241 44.3251 31.3326 44.0046 30.8893C43.684 30.4459 43.2101 30.2237 42.5839 30.2237C42.221 30.2237 41.9111 30.2959 41.654 30.4416C41.3969 30.5872 41.1875 30.8094 41.0277 31.1072C40.8669 31.406 40.7485 31.7825 40.6723 32.2366H40.5051L40.5157 30.3725H39.2727ZM47.3832 35.9638C47.0877 35.9638 46.8179 35.9071 46.5748 35.7925C46.3318 35.6779 46.1391 35.5087 45.9988 35.2837C45.8575 35.0588 45.7879 34.774 45.7879 34.4271C45.7879 34.1223 45.8478 33.8679 45.9678 33.664C46.0877 33.4601 46.2601 33.294 46.486 33.1657C46.7119 33.0375 46.9806 32.9355 47.2943 32.8599C47.6081 32.7842 47.955 32.7148 48.3361 32.6528C48.6038 32.6118 48.8158 32.5729 48.97 32.5382C49.1252 32.5035 49.2376 32.4531 49.3083 32.3879C49.379 32.3227 49.4143 32.2239 49.4143 32.0926C49.4143 31.8855 49.3404 31.7141 49.1927 31.5786C49.0449 31.444 48.819 31.3757 48.516 31.3757C48.3254 31.3757 48.1445 31.4104 47.971 31.4797C47.7986 31.5491 47.652 31.6542 47.532 31.7961C47.4121 31.938 47.335 32.123 47.2997 32.3511L45.9463 32.0295C46.0095 31.711 46.1187 31.4377 46.274 31.2096C46.4292 30.9815 46.6209 30.7944 46.85 30.6494C47.0791 30.5043 47.3393 30.3971 47.6327 30.3277C47.925 30.2583 48.2333 30.2237 48.5578 30.2237C49.0931 30.2237 49.5342 30.312 49.879 30.4885C50.2238 30.6651 50.4818 30.9332 50.651 31.2926C50.8201 31.6521 50.9047 32.1062 50.9047 32.6528V33.5978C50.9047 33.8395 50.9079 34.0855 50.9154 34.3346C50.9218 34.5837 50.9325 34.8328 50.9475 35.0819C50.9615 35.331 50.9797 35.577 51 35.8188H49.6574C49.6359 35.618 49.6167 35.4004 49.5995 35.165C49.5813 34.9295 49.5696 34.6878 49.5621 34.4386H49.4036C49.3254 34.7225 49.1959 34.98 49.0128 35.2123C48.8297 35.4446 48.6006 35.6275 48.3254 35.762C48.0502 35.8966 47.7365 35.9649 47.3843 35.9649L47.3832 35.9638ZM48.0171 34.8738C48.1584 34.8738 48.2986 34.8496 48.44 34.8013C48.5813 34.7529 48.7162 34.6804 48.8468 34.5837C48.9775 34.487 49.0952 34.364 49.2012 34.2148C49.3072 34.0666 49.3843 33.891 49.4336 33.6903L49.4255 33.166C49.3753 33.189 49.3216 33.2095 49.2644 33.2278C49.1027 33.2793 48.9314 33.3213 48.7516 33.3518L48.5615 33.3849L48.5612 33.385C48.4459 33.405 48.3314 33.425 48.2173 33.4453C48.0406 33.4769 47.8811 33.52 47.7365 33.5746C47.592 33.6303 47.4774 33.706 47.3928 33.8027C47.3083 33.8994 47.2654 34.0308 47.2654 34.1969C47.2654 34.4113 47.3361 34.5774 47.4764 34.6951C47.6177 34.8128 47.7965 34.8717 48.016 34.8717L48.0171 34.8738Z" fill="white"/>
</svg>
