<svg width="129" height="37" viewBox="0 0 129 37" fill="none" xmlns="http://www.w3.org/2000/svg">
<path fill-rule="evenodd" clip-rule="evenodd" d="M83.7787 0.1005C82.5448 -0.256391 81.2243 0.359716 80.73 1.59193H80.7264C79.9166 3.60063 81.0909 5.26663 82.3181 7.00767C83.3929 8.53255 84.5083 10.115 84.3668 12.0357C84.3668 12.0507 84.3849 12.062 84.3957 12.047C87.78 7.58771 87.5707 1.20499 83.7787 0.1005ZM71.9983 9.39188V35.6929H77.0567V9.39188H71.9983ZM0 35.6928V11.21H5.20273V35.6928H0ZM9.65496 35.6927V16.2176H13.8944L13.8583 22.7093H14.4283C14.6881 21.1277 15.0922 19.8166 15.6406 18.776C16.1854 17.7391 16.8998 16.9652 17.7766 16.4581C18.6533 15.9509 19.7104 15.6992 20.948 15.6992C23.0839 15.6992 24.7003 16.4731 25.7935 18.0171C26.8867 19.5612 27.4315 21.9692 27.4315 25.2301V35.6889H22.301V25.8237C22.301 23.8702 22.0268 22.4463 21.482 21.5598C20.9372 20.6694 20.1145 20.2261 19.0249 20.2261C18.1229 20.2261 17.3544 20.5304 16.7266 21.1352C16.0988 21.7401 15.6154 22.5816 15.2834 23.656C14.9515 24.7304 14.7855 26.0002 14.7855 27.4579V35.6927H9.65496ZM35.5714 35.8205C36.6033 36.0797 37.7506 36.2112 39.0098 36.2112L39.0062 36.2149C40.7885 36.2149 42.2967 35.9707 43.5306 35.4748C44.7646 34.9789 45.7171 34.2764 46.3809 33.3598C47.0448 32.4431 47.3767 31.3574 47.3767 30.0952C47.3767 28.9832 47.1567 28.0778 46.7165 27.3865C46.2763 26.6953 45.6882 26.1318 44.9522 25.6998C44.2161 25.2677 43.4043 24.9221 42.5132 24.6629C41.6256 24.4037 40.7164 24.1745 39.7891 23.9754C38.8835 23.7763 38.1078 23.5847 37.4548 23.4006C36.7981 23.2128 36.2966 22.9724 35.9394 22.6756C35.5822 22.3788 35.4054 22.0069 35.4054 21.5636C35.4054 20.97 35.6796 20.5004 36.2244 20.1548C36.7728 19.8092 37.545 19.6364 38.5408 19.6364C39.3273 19.6364 40.0128 19.7566 40.6081 19.9895C41.1999 20.2224 41.6725 20.5756 42.0153 21.0452C42.358 21.5147 42.5565 22.082 42.6034 22.7507L46.8428 21.5636C46.702 20.2788 46.2619 19.2006 45.5258 18.3365C44.7898 17.4725 43.8265 16.815 42.6394 16.3718C41.4488 15.9247 40.0958 15.7031 38.5768 15.7031C36.9136 15.7031 35.4884 15.9548 34.3014 16.4619C33.1143 16.9691 32.2051 17.6753 31.5773 18.577C30.9459 19.4786 30.632 20.538 30.632 21.7477C30.632 22.8371 30.8593 23.7312 31.3103 24.4375C31.7613 25.14 32.3639 25.7186 33.1107 26.1618C33.8576 26.6051 34.6946 26.9658 35.6219 27.2363C36.5491 27.5068 37.4872 27.7547 38.4361 27.9764C39.3634 28.1755 40.1355 28.3708 40.7525 28.5699C41.3694 28.769 41.8313 28.9982 42.1415 29.2574C42.4482 29.5166 42.6034 29.881 42.6034 30.3506C42.6034 30.993 42.3075 31.4777 41.7122 31.797C41.1205 32.1163 40.287 32.2778 39.2912 32.2778C38.2954 32.2778 37.4511 32.1426 36.762 31.8684C36.0729 31.5979 35.5281 31.2072 35.124 30.7C34.7199 30.1928 34.4854 29.6331 34.4132 29.0132L30.3506 30.3131C30.4192 31.2748 30.6753 32.1238 31.1155 32.8526C31.5557 33.5814 32.151 34.1938 32.8979 34.6897C33.6483 35.1856 34.5395 35.5612 35.5714 35.8205ZM56.7148 36.2112C54.5536 36.2112 52.9372 35.4373 51.8693 33.8933C50.8013 32.3493 50.2673 30.0051 50.2673 26.8644V16.2178H55.3979V26.346C55.3979 28.2018 55.6577 29.5618 56.1808 30.4258C56.704 31.2899 57.4978 31.7257 58.5693 31.7257C59.2116 31.7257 59.7744 31.5604 60.2615 31.226C60.7486 30.8917 61.1707 30.4108 61.5279 29.7797C61.8851 29.1485 62.1557 28.3897 62.3469 27.4993C62.5381 26.609 62.6428 25.6209 62.668 24.5315V16.2215H67.7986V35.6965H63.5592L63.5953 29.1673H63.0252C62.7402 30.7977 62.3289 32.1351 61.7949 33.172C61.2609 34.2089 60.579 34.979 59.7455 35.4711C58.9157 35.967 57.9055 36.2112 56.7184 36.2112H56.7148ZM81.2602 35.6928V16.2178H86.3908V35.6928H81.2602ZM90.5932 16.2176V35.6927H95.7237V27.4579C95.7237 26.0002 95.8897 24.7304 96.2216 23.656C96.5536 22.5816 97.0334 21.7401 97.6648 21.1352C98.2926 20.5304 99.0611 20.2261 99.9631 20.2261C101.053 20.2261 101.875 20.6694 102.42 21.5598C102.965 22.4463 103.239 23.8702 103.239 25.8237V35.6889H108.37V25.2301C108.37 21.9692 107.825 19.5612 106.732 18.0171C105.639 16.4731 104.022 15.6992 101.886 15.6992C100.649 15.6992 99.5915 15.9509 98.7148 16.4581C97.838 16.9652 97.1236 17.7391 96.5788 18.776C96.0304 19.8166 95.6263 21.1277 95.3665 22.7093H94.7965L94.8326 16.2176H90.5932ZM116.812 36.2115C115.816 36.2115 114.907 36.0086 114.088 35.5991C113.269 35.1896 112.62 34.5848 112.147 33.7808C111.671 32.9769 111.436 31.9588 111.436 30.7191C111.436 29.6296 111.638 28.7205 112.042 27.9917C112.446 27.2629 113.027 26.6693 113.789 26.211C114.55 25.7527 115.455 25.3883 116.513 25.1178C117.57 24.8473 118.739 24.5993 120.023 24.3777C120.925 24.2312 121.64 24.0922 122.159 23.9682C122.682 23.8442 123.061 23.6639 123.299 23.431C123.537 23.1981 123.656 22.8449 123.656 22.3753C123.656 21.6353 123.407 21.0229 122.91 20.5383C122.412 20.0574 121.65 19.8132 120.629 19.8132C119.987 19.8132 119.377 19.9372 118.793 20.1852C118.212 20.4331 117.718 20.8088 117.314 21.3159C116.909 21.8231 116.65 22.4843 116.531 23.2995L111.97 22.1499C112.183 21.0116 112.551 20.0349 113.074 19.2197C113.597 18.4045 114.243 17.7358 115.015 17.2173C115.787 16.6989 116.664 16.3157 117.653 16.0678C118.638 15.8198 119.677 15.6958 120.77 15.6958C122.574 15.6958 124.06 16.0114 125.222 16.6425C126.384 17.2737 127.254 18.2316 127.824 19.5165C128.394 20.8013 128.679 22.4242 128.679 24.3777V27.755C128.679 28.6191 128.69 29.4981 128.715 30.3885C128.736 31.2788 128.773 32.1692 128.823 33.0595C128.87 33.9499 128.931 34.829 129 35.693H124.475C124.403 34.9755 124.338 34.1978 124.281 33.3563C124.219 32.5148 124.18 31.6508 124.154 30.7604H123.62C123.357 31.7747 122.92 32.6951 122.303 33.5254C121.686 34.3556 120.914 35.0093 119.987 35.4902C119.06 35.971 118.003 36.2152 116.816 36.2152L116.812 36.2115ZM118.948 32.3157C119.424 32.3157 119.897 32.2293 120.373 32.0565C120.849 31.8837 121.304 31.6245 121.744 31.2788C122.184 30.9332 122.581 30.4937 122.938 29.9602C123.296 29.4305 123.555 28.8031 123.721 28.0856L123.694 26.2118C123.525 26.294 123.344 26.3675 123.151 26.4326C122.606 26.6167 122.029 26.767 121.423 26.8759C121.208 26.9159 120.994 26.9553 120.781 26.9947L120.78 26.9948C120.392 27.0664 120.007 27.1376 119.623 27.2103C119.027 27.323 118.49 27.477 118.003 27.6724C117.516 27.8715 117.13 28.142 116.844 28.4876C116.559 28.8332 116.415 29.3028 116.415 29.8964C116.415 30.6627 116.653 31.2563 117.126 31.6771C117.602 32.0978 118.205 32.3082 118.944 32.3082L118.948 32.3157Z" fill="white"/>
</svg>
