<svg width="235" height="64" viewBox="0 0 235 64" fill="none" xmlns="http://www.w3.org/2000/svg">
<path fill-rule="evenodd" clip-rule="evenodd" d="M152.268 0.175431C150.026 -0.44754 147.626 0.627904 146.727 2.77879H146.721C145.249 6.28508 147.383 9.19315 149.614 12.2322C151.567 14.894 153.594 17.6562 153.337 21.0089C153.337 21.0351 153.37 21.0548 153.39 21.0286C159.541 13.2447 159.16 2.10336 152.268 0.175431ZM130.857 16.3936V62.3032H140.051V16.3936H130.857ZM0 62.3031V19.5673H9.45604V62.3031H0ZM17.5488 62.3028V28.3083H25.254L25.1884 39.6398H26.2245C26.6967 36.879 27.4311 34.5904 28.4279 32.774C29.4181 30.9641 30.7165 29.6132 32.31 28.728C33.9035 27.8427 35.8248 27.4033 38.0741 27.4033C41.9562 27.4033 44.894 28.7542 46.8809 31.4494C48.8679 34.1445 49.8581 38.3479 49.8581 44.0399V62.2962H40.5332V45.076C40.5332 41.6661 40.0348 39.1807 39.0446 37.6332C38.0544 36.079 36.5593 35.3052 34.5789 35.3052C32.9395 35.3052 31.5427 35.8364 30.4017 36.8922C29.2607 37.9479 28.382 39.4168 27.7787 41.2923C27.1754 43.1678 26.8737 45.3842 26.8737 47.9286V62.3028H17.5488ZM64.6509 62.526C66.5264 62.9785 68.6117 63.208 70.9003 63.208L70.8938 63.2146C74.1332 63.2146 76.8743 62.7883 79.117 61.9227C81.3597 61.0571 83.0909 59.8309 84.2975 58.2308C85.5041 56.6308 86.1074 54.7356 86.1074 52.5323C86.1074 50.5912 85.7073 49.0108 84.9073 47.8043C84.1073 46.5977 83.0384 45.614 81.7007 44.8599C80.3629 44.1058 78.8875 43.5025 77.2677 43.05C75.6546 42.5975 74.0021 42.1975 72.3168 41.85C70.6708 41.5024 69.2609 41.168 68.074 40.8467C66.8805 40.5188 65.969 40.0991 65.3198 39.581C64.6706 39.063 64.3493 38.4138 64.3493 37.64C64.3493 36.6039 64.8477 35.7842 65.8379 35.1809C66.8346 34.5776 68.2379 34.276 70.0478 34.276C71.4774 34.276 72.7233 34.4858 73.8053 34.8924C74.8808 35.2989 75.7398 35.9153 76.3628 36.735C76.9858 37.5547 77.3464 38.5449 77.4317 39.7122L85.1368 37.64C84.8811 35.3973 84.0811 33.5153 82.7433 32.007C81.4056 30.4988 79.6547 29.3512 77.4973 28.5774C75.3332 27.7971 72.8742 27.4102 70.1134 27.4102C67.0904 27.4102 64.5001 27.8495 62.3427 28.7348C60.1852 29.6201 58.5327 30.8529 57.3917 32.4267C56.2441 34.0005 55.6736 35.8498 55.6736 37.9613C55.6736 39.863 56.0867 41.4237 56.9064 42.6565C57.7261 43.8828 58.8212 44.8927 60.1787 45.6665C61.5361 46.4403 63.0574 47.0698 64.7427 47.542C66.428 48.0141 68.133 48.4469 69.8577 48.8338C71.543 49.1813 72.9463 49.5223 74.0676 49.8699C75.189 50.2174 76.0284 50.6175 76.5923 51.0699C77.1497 51.5224 77.4317 52.1585 77.4317 52.9782C77.4317 54.0995 76.894 54.9455 75.812 55.5029C74.7365 56.0603 73.2217 56.3422 71.4118 56.3422C69.6019 56.3422 68.0674 56.1062 66.8149 55.6275C65.5624 55.1553 64.5722 54.4733 63.8378 53.588C63.1033 52.7028 62.6771 51.7257 62.5459 50.6437L55.1621 52.9126C55.2867 54.5914 55.7523 56.0734 56.5523 57.3455C57.3523 58.6177 58.4343 59.6866 59.7918 60.5522C61.1557 61.4178 62.7755 62.0736 64.6509 62.526ZM103.08 63.2081C99.1517 63.2081 96.2139 61.8572 94.2729 59.162C92.3318 56.4669 91.3613 52.3749 91.3613 46.8928V28.3086H100.686V45.9879C100.686 49.2273 101.158 51.6011 102.109 53.1094C103.06 54.6176 104.503 55.3783 106.45 55.3783C107.618 55.3783 108.641 55.0898 109.526 54.5062C110.411 53.9225 111.178 53.0832 111.828 51.9815C112.477 50.8798 112.969 49.5552 113.316 48.001C113.664 46.4469 113.854 44.7222 113.9 42.8205V28.3152H123.225V62.3097H115.519L115.585 50.9126H114.549C114.031 53.7586 113.283 56.0931 112.313 57.903C111.342 59.7129 110.103 61.0572 108.588 61.9162C107.08 62.7818 105.244 63.2081 103.086 63.2081H103.08ZM147.691 62.3031V28.3086H157.016V62.3031H147.691ZM164.654 28.3083V62.3028H173.979V47.9286C173.979 45.3842 174.281 43.1678 174.884 41.2923C175.487 39.4168 176.36 37.9479 177.507 36.8922C178.648 35.8364 180.045 35.3052 181.684 35.3052C183.665 35.3052 185.16 36.079 186.15 37.6332C187.14 39.1807 187.639 41.6661 187.639 45.076V62.2962H196.964V44.0399C196.964 38.3479 195.973 34.1445 193.986 31.4494C191.999 28.7542 189.062 27.4033 185.18 27.4033C182.93 27.4033 181.009 27.8427 179.415 28.728C177.822 29.6132 176.524 30.9641 175.533 32.774C174.537 34.5904 173.802 36.879 173.33 39.6398H172.294L172.359 28.3083H164.654ZM212.308 63.2085C210.498 63.2085 208.846 62.8543 207.357 62.1396C205.868 61.4248 204.688 60.369 203.829 58.9657C202.963 57.5624 202.537 55.7853 202.537 53.6213C202.537 51.7196 202.904 50.1326 203.639 48.8604C204.373 47.5883 205.429 46.5522 206.813 45.7521C208.196 44.9521 209.842 44.316 211.764 43.8439C213.685 43.3717 215.81 42.9389 218.144 42.552C219.784 42.2963 221.082 42.0537 222.026 41.8373C222.977 41.6209 223.666 41.3061 224.098 40.8995C224.531 40.493 224.748 39.8766 224.748 39.0569C224.748 37.765 224.295 36.6961 223.39 35.8502C222.485 35.0108 221.102 34.5846 219.246 34.5846C218.079 34.5846 216.97 34.801 215.908 35.2338C214.852 35.6666 213.954 36.3223 213.219 37.2076C212.485 38.0929 212.013 39.247 211.796 40.67L203.508 38.6634C203.895 36.6764 204.563 34.9715 205.514 33.5485C206.465 32.1255 207.639 30.9582 209.042 30.0533C210.446 29.1483 212.039 28.4795 213.836 28.0467C215.626 27.6139 217.515 27.3975 219.502 27.3975C222.78 27.3975 225.482 27.9483 227.594 29.05C229.705 30.1516 231.286 31.8238 232.322 34.0665C233.358 36.3092 233.876 39.1421 233.876 42.552V48.4473C233.876 49.9556 233.896 51.49 233.941 53.0442C233.981 54.5983 234.046 56.1525 234.138 57.7066C234.223 59.2608 234.335 60.7953 234.459 62.3035H226.236C226.105 61.051 225.987 59.6936 225.882 58.2247C225.771 56.7558 225.699 55.2475 225.653 53.6934H224.682C224.203 55.4639 223.41 57.0705 222.289 58.5198C221.167 59.969 219.764 61.11 218.079 61.9494C216.393 62.7888 214.472 63.215 212.314 63.215L212.308 63.2085ZM216.19 56.4082C217.056 56.4082 217.915 56.2574 218.78 55.9558C219.646 55.6541 220.472 55.2016 221.272 54.5983C222.072 53.995 222.794 53.2278 223.443 52.2966C224.092 51.372 224.564 50.2769 224.866 49.0244L224.816 45.7535C224.509 45.897 224.18 46.0254 223.83 46.139C222.839 46.4604 221.79 46.7227 220.689 46.9128C220.298 46.9825 219.91 47.0514 219.522 47.1201C218.816 47.2451 218.115 47.3694 217.416 47.4965C216.334 47.6932 215.357 47.9621 214.472 48.3031C213.587 48.6506 212.885 49.1228 212.367 49.7261C211.849 50.3293 211.587 51.149 211.587 52.1851C211.587 53.5229 212.019 54.559 212.878 55.2934C213.744 56.0279 214.839 56.3951 216.183 56.3951L216.19 56.4082Z" fill="white"/>
</svg>
